<?xml version="1.0" encoding="utf-8"?>
<!-- Generator: Adobe Illustrator 27.5.0, SVG Export Plug-In . SVG Version: 6.00 Build 0)  -->
<svg version="1.1" xmlns="http://www.w3.org/2000/svg" xmlns:xlink="http://www.w3.org/1999/xlink" x="0px" y="0px"
	 viewBox="0 0 500 500" style="enable-background:new 0 0 500 500;" xml:space="preserve">
<g id="BACKGROUND">
</g>
<g id="OBJECTS">
	<g>
		
			<radialGradient id="SVGID_1_" cx="1036.4281" cy="-296.3541" r="89.0491" gradientTransform="matrix(2.6803 0 0 0.3508 -2527.938 534.984)" gradientUnits="userSpaceOnUse">
			<stop  offset="0" style="stop-color:#8DAEFF"/>
			<stop  offset="1" style="stop-color:#FFFFFF;stop-opacity:0"/>
		</radialGradient>
		<ellipse style="fill:url(#SVGID_1_);" cx="250" cy="431.023" rx="238.686" ry="31.237"/>
		
			<linearGradient id="SVGID_00000157998077465663364630000010728991216865168305_" gradientUnits="userSpaceOnUse" x1="102.1303" y1="423.222" x2="196.3769" y2="175.3884">
			<stop  offset="0" style="stop-color:#FFFFFF;stop-opacity:0"/>
			<stop  offset="1" style="stop-color:#C9DEFF"/>
		</linearGradient>
		<path style="fill:url(#SVGID_00000157998077465663364630000010728991216865168305_);" d="M122.903,101.986l81.991,36.51
			c5.718,2.546,10.282,11.46,10.282,19.949v257.208c0,8.489-4.563,15.371-10.282,15.371h-81.991
			c-7.371,0-13.456-8.007-13.456-17.884V113.878C109.447,104.001,115.531,98.703,122.903,101.986z"/>
		<g>
			
				<linearGradient id="SVGID_00000115495570229652909870000001339922897853085876_" gradientUnits="userSpaceOnUse" x1="311.9928" y1="431.5435" x2="311.9928" y2="29.305">
				<stop  offset="0" style="stop-color:#FFFFFF;stop-opacity:0"/>
				<stop  offset="1" style="stop-color:#C9DEFF"/>
			</linearGradient>
			<path style="fill:url(#SVGID_00000115495570229652909870000001339922897853085876_);" d="M359.405,431.543h-94.825V85.293
				c0-13.133,7.777-25.015,19.814-30.271l56.332-24.597c4.139-1.807,8.867-1.41,12.644,1.064c3.778,2.473,6.034,6.646,6.034,11.162
				V431.543z M265.621,430.503h92.743V42.651c0-4.164-2.08-8.011-5.563-10.291c-3.483-2.281-7.842-2.645-11.657-0.981
				l-56.332,24.597c-11.657,5.09-19.19,16.598-19.19,29.317V430.503z"/>
		</g>
		
			<linearGradient id="SVGID_00000069357050002268228690000014800805120497124791_" gradientUnits="userSpaceOnUse" x1="2904.0479" y1="429.4094" x2="2975.9839" y2="240.2446" gradientTransform="matrix(-1 0 0 1 3299.457 0)">
			<stop  offset="0" style="stop-color:#FFFFFF;stop-opacity:0"/>
			<stop  offset="1" style="stop-color:#C9DEFF"/>
		</linearGradient>
		<path style="fill:url(#SVGID_00000069357050002268228690000014800805120497124791_);" d="M389.745,185.438l-85.05,27.25
			c-5.932,1.901-10.665,8.553-10.665,14.889v191.973c0,6.336,4.733,11.472,10.665,11.472h85.05c7.646,0,13.958-5.976,13.958-13.348
			V194.314C403.703,186.942,397.391,182.988,389.745,185.438z"/>
		<g>
			
				<linearGradient id="SVGID_00000101800358078286108210000012416142253960895880_" gradientUnits="userSpaceOnUse" x1="361.0027" y1="362.7993" x2="382.6815" y2="305.7921">
				<stop  offset="0" style="stop-color:#6164FF"/>
				<stop  offset="1" style="stop-color:#8EE5FF"/>
			</linearGradient>
			<path style="fill:url(#SVGID_00000101800358078286108210000012416142253960895880_);" d="M371,358.997
				c-4.367,2.738-10.222,4.434-15.052,1.951c-3.513-1.806-6.809-4.592-7.89-8.392c-1.067-3.749,0.192-7.724,1.463-11.409
				c4.32-12.527,14.751-25.009,25.267-32.93c5.665-4.268,12.304-7.799,19.397-7.787c1.467,0.003,3.007,0.184,4.208,1.027
				c2.78,1.952,2.359,6.141,1.483,9.423c-3.624,13.569-9.883,26.429-18.325,37.653C378.556,352.514,375.221,356.351,371,358.997z"/>
			
				<linearGradient id="SVGID_00000102522771012744534800000007217514657058615468_" gradientUnits="userSpaceOnUse" x1="353.0116" y1="400.6466" x2="389.9457" y2="343.907">
				<stop  offset="0.0196" style="stop-color:#343B97"/>
				<stop  offset="1" style="stop-color:#5457D4"/>
			</linearGradient>
			<path style="fill:url(#SVGID_00000102522771012744534800000007217514657058615468_);" d="M401.056,357.053
				c-3.102,10.032-9.096,19.097-16.912,26.085c-6.641,5.937-18.542,15.706-27.496,11.099c-2.333-1.201-4.555-2.807-5.883-5.071
				c-0.884-1.507-1.328-3.233-1.59-4.96c-3.572-23.556,24.58-36.273,43.594-39.028c2.132-0.309,4.453-0.495,6.303,0.609
				C402.616,347.9,402.275,353.113,401.056,357.053z"/>
			<path style="fill:#FFFFFF;" d="M395.44,351.526c-32.333,16.788-58.768,44.659-73.823,77.834l0.948,0.43
				c14.955-32.959,41.233-60.665,73.354-77.341L395.44,351.526L395.44,351.526z"/>
			<path style="fill:#FFFFFF;" d="M391.047,306.002c-14.625,11.379-25.921,26.542-34.839,42.732
				c-8.916,16.19-15.584,33.476-22.216,50.676l0.971,0.375c6.631-17.201,13.286-34.441,22.157-50.548
				c8.871-16.107,20.091-31.152,34.566-42.413L391.047,306.002L391.047,306.002z"/>
		</g>
		<g>
			
				<linearGradient id="SVGID_00000167364121100186902070000016026010057604540547_" gradientUnits="userSpaceOnUse" x1="2618.9478" y1="362.9661" x2="2637.6621" y2="313.7542" gradientTransform="matrix(-1 0 0 1 2753.9983 0)">
				<stop  offset="0" style="stop-color:#6164FF"/>
				<stop  offset="1" style="stop-color:#8EE5FF"/>
			</linearGradient>
			<path style="fill:url(#SVGID_00000167364121100186902070000016026010057604540547_);" d="M126.42,359.684
				c3.77,2.363,8.824,3.828,12.994,1.684c3.033-1.559,5.878-3.964,6.811-7.244c0.921-3.237-0.166-6.668-1.263-9.849
				c-3.729-10.814-12.734-21.589-21.812-28.428c-4.89-3.684-10.621-6.733-16.744-6.722c-1.266,0.002-2.596,0.159-3.632,0.887
				c-2.4,1.685-2.037,5.301-1.28,8.134c3.129,11.713,8.532,22.815,15.819,32.504C119.898,354.087,122.776,357.4,126.42,359.684z"/>
			
				<linearGradient id="SVGID_00000020378602416879337360000015494387131359665593_" gradientUnits="userSpaceOnUse" x1="2609.7468" y1="400.6466" x2="2646.6809" y2="343.9071" gradientTransform="matrix(-1 0 0 1 2753.9983 0)">
				<stop  offset="0.0196" style="stop-color:#343B97"/>
				<stop  offset="1" style="stop-color:#5457D4"/>
			</linearGradient>
			<path style="fill:url(#SVGID_00000020378602416879337360000015494387131359665593_);" d="M96.207,357.053
				c3.102,10.032,9.097,19.097,16.912,26.085c6.64,5.937,18.542,15.706,27.496,11.099c2.333-1.201,4.555-2.807,5.883-5.071
				c0.884-1.507,1.328-3.233,1.59-4.96c3.572-23.556-24.58-36.273-43.594-39.028c-2.132-0.309-4.453-0.495-6.303,0.609
				C94.647,347.9,94.988,353.113,96.207,357.053z"/>
			<path style="fill:#FFFFFF;" d="M101.344,352.45c32.122,16.676,58.4,44.382,73.354,77.341l0.948-0.43
				c-15.055-33.176-41.489-61.047-73.823-77.834L101.344,352.45L101.344,352.45z"/>
			<path style="fill:#FFFFFF;" d="M104.323,312.785c12.487,9.714,22.167,22.694,29.821,36.592
				c7.655,13.898,13.398,28.779,19.123,43.627l0.971-0.375c-5.726-14.848-11.483-29.774-19.183-43.755
				c-7.701-13.982-17.458-27.08-30.094-36.912L104.323,312.785L104.323,312.785z"/>
		</g>
		<g>
			
				<linearGradient id="SVGID_00000119803973370657748850000017000793708995601561_" gradientUnits="userSpaceOnUse" x1="2692.7317" y1="424.963" x2="2714.0156" y2="424.963" gradientTransform="matrix(-1 0 0 1 2892.4001 0)">
				<stop  offset="0.0196" style="stop-color:#343B97"/>
				<stop  offset="1" style="stop-color:#5457D4"/>
			</linearGradient>
			<path style="fill:url(#SVGID_00000119803973370657748850000017000793708995601561_);" d="M179.605,418.903l-1.22,12.12h21.284
				v-3.234c-0.49-1.198-7.101-5.892-8.337-8.886C184.21,418.903,179.605,418.903,179.605,418.903z"/>
			
				<linearGradient id="SVGID_00000153698624997457801520000010071545448448269731_" gradientUnits="userSpaceOnUse" x1="197.7055" y1="322.0822" x2="106.1733" y2="372.6657">
				<stop  offset="0.0196" style="stop-color:#343B97"/>
				<stop  offset="1" style="stop-color:#5457D4"/>
			</linearGradient>
			<polygon style="fill:url(#SVGID_00000153698624997457801520000010071545448448269731_);" points="137.824,278.475 
				141.262,419.086 158.259,420.581 167.089,306.759 167.089,278.475 			"/>
			
				<linearGradient id="SVGID_00000005249417723146132510000013684691354238290094_" gradientUnits="userSpaceOnUse" x1="185.3355" y1="347.7137" x2="121.5033" y2="366.5822">
				<stop  offset="0.0196" style="stop-color:#343B97"/>
				<stop  offset="1" style="stop-color:#5457D4"/>
			</linearGradient>
			<polygon style="fill:url(#SVGID_00000005249417723146132510000013684691354238290094_);" points="196.354,278.121 
				193.704,420.227 176.402,420.227 167.089,306.405 167.089,278.121 			"/>
			<g>
				
					<linearGradient id="SVGID_00000021080835219299498750000010421728384612181169_" gradientUnits="userSpaceOnUse" x1="183.8354" y1="208.2147" x2="158.6002" y2="154.3291">
					<stop  offset="0.0196" style="stop-color:#343B97"/>
					<stop  offset="1" style="stop-color:#5457D4"/>
				</linearGradient>
				<path style="fill:url(#SVGID_00000021080835219299498750000010421728384612181169_);" d="M193.739,224.839
					c-0.76-4.495-1.574-40.95-18.394-44.117c-2.148,4.859-1.321,9.115,0.413,20.408c1.253,8.163,3.127,19.847,3.127,19.847
					l1.15,0.031c3.419,1.967,9.906,3.755,13.79,4.992C193.79,225.445,193.755,224.932,193.739,224.839z"/>
				
					<linearGradient id="SVGID_00000037683518823949296680000002937644891705866377_" gradientUnits="userSpaceOnUse" x1="198.5902" y1="254.8483" x2="98.9778" y2="203.2395">
					<stop  offset="0.0196" style="stop-color:#343B97"/>
					<stop  offset="1" style="stop-color:#5457D4"/>
				</linearGradient>
				<path style="fill:url(#SVGID_00000037683518823949296680000002937644891705866377_);" d="M199.467,271.597
					c-0.091-0.331-0.185-7.215-0.275-7.543c-4.214-15.297-10.236-23.051-10.614-24.475c-0.569-7.75-1.734-20.978-3.79-28.393
					c-3.825-13.796-7.133-24.813-9.44-30.465c-5.91-0.53-8.898-1.001-18.162-1.299l-18.945,4.208c0,0-9.89,3.985-15.687,8.515
					c-0.153,0.118,1.969,17.11,4.364,33.854c3.315,8.599,6.891,18.849,7.727,23.36c-0.854,9.145-0.142,23.092,0.285,34.591
					C157.16,285.376,180.128,281.468,199.467,271.597z"/>
				
					<linearGradient id="SVGID_00000080929291133534365250000016962329030735297171_" gradientUnits="userSpaceOnUse" x1="179.131" y1="248.3222" x2="163.3828" y2="210.3747">
					<stop  offset="0.0196" style="stop-color:#343B97"/>
					<stop  offset="1" style="stop-color:#5457D4"/>
				</linearGradient>
				<polygon style="fill:url(#SVGID_00000080929291133534365250000016962329030735297171_);" points="158.259,224.166 
					159.895,179.178 166.782,192.428 163.221,197.921 167.089,205.745 				"/>
				<g>
					
						<linearGradient id="SVGID_00000127010308626961863640000014392400399128829096_" gradientUnits="userSpaceOnUse" x1="151.9552" y1="193.6972" x2="146.6205" y2="178.0836">
						<stop  offset="0" style="stop-color:#FFFFFF"/>
						<stop  offset="1" style="stop-color:#90BDFF"/>
					</linearGradient>
					<path style="fill:url(#SVGID_00000127010308626961863640000014392400399128829096_);" d="M136.881,180.716
						c6.38-2.165,13.333-4.244,20.994-4.663c1.16,3.269,0.848,3.819,0.848,3.819l-21.789,4.84L136.881,180.716z"/>
					
						<linearGradient id="SVGID_00000119839361712372015500000008193575215281053876_" gradientUnits="userSpaceOnUse" x1="148.4095" y1="218.7079" x2="148.4095" y2="187.7812">
						<stop  offset="0" style="stop-color:#FFFFFF"/>
						<stop  offset="1" style="stop-color:#C9DEFF"/>
					</linearGradient>
					<polygon style="fill:url(#SVGID_00000119839361712372015500000008193575215281053876_);" points="136.924,183.926 
						158.259,224.166 159.895,179.178 149.475,188.606 					"/>
					
						<linearGradient id="SVGID_00000170986665474698881490000006100291011869535112_" gradientUnits="userSpaceOnUse" x1="147.6793" y1="192.7441" x2="153.7532" y2="192.7441">
						<stop  offset="0.0196" style="stop-color:#343B97"/>
						<stop  offset="1" style="stop-color:#5457D4"/>
					</linearGradient>
					<polygon style="fill:url(#SVGID_00000170986665474698881490000006100291011869535112_);" points="147.679,192.684 
						150.716,195.681 152.581,195.265 153.753,192.034 151.201,189.807 148.784,190.29 					"/>
					
						<linearGradient id="SVGID_00000183217125381582907280000012589795789507830927_" gradientUnits="userSpaceOnUse" x1="150.2487" y1="221.07" x2="157.8913" y2="200.9727">
						<stop  offset="0.0196" style="stop-color:#343B97"/>
						<stop  offset="1" style="stop-color:#5457D4"/>
					</linearGradient>
					<path style="fill:url(#SVGID_00000183217125381582907280000012589795789507830927_);" d="M152.581,195.265
						c2.94,4.545,6.242,13.39,6.242,13.39l-0.564,15.511l-7.543-14.226v-14.26L152.581,195.265z"/>
					
						<linearGradient id="SVGID_00000111871270047558582930000011806820020743587969_" gradientUnits="userSpaceOnUse" x1="165.3032" y1="254.0607" x2="149.5549" y2="216.1131">
						<stop  offset="0.0196" style="stop-color:#343B97"/>
						<stop  offset="1" style="stop-color:#5457D4"/>
					</linearGradient>
					<polygon style="fill:url(#SVGID_00000111871270047558582930000011806820020743587969_);" points="158.259,224.166 
						137.358,185.201 137.1,199.021 142.652,202.49 142.46,211.215 					"/>
					
						<linearGradient id="SVGID_00000061452055397178671750000012611372330686130109_" gradientUnits="userSpaceOnUse" x1="249.5756" y1="-91.5992" x2="249.5756" y2="-80.5353" gradientTransform="matrix(0.9762 -0.2168 0.2168 0.9762 -78.1918 317.0728)">
						<stop  offset="0" style="stop-color:#F59F7C"/>
						<stop  offset="1" style="stop-color:#F5D3AC"/>
					</linearGradient>
					<path style="fill:url(#SVGID_00000061452055397178671750000012611372330686130109_);" d="M138.401,173.432
						c0,0,1.231,5.925,1.548,7.351s-2.387,3.002-2.387,3.002s4.237,4.068,11.912,4.822c7.597-4.894,7.713-9.181,7.713-9.181
						s-2.501-0.313-3.017-1.374c-0.516-1.061-1.855-8.352-1.855-8.352L138.401,173.432z"/>
					<g>
						
							<linearGradient id="SVGID_00000058591148820295746070000011969798128742195086_" gradientUnits="userSpaceOnUse" x1="237.2603" y1="-88.4183" x2="237.2603" y2="-102.812" gradientTransform="matrix(0.9762 -0.2168 0.2168 0.9762 -78.1918 317.0728)">
							<stop  offset="0" style="stop-color:#F59F7C"/>
							<stop  offset="1" style="stop-color:#F5D3AC"/>
						</linearGradient>
						<path style="fill:url(#SVGID_00000058591148820295746070000011969798128742195086_);" d="M132.166,164.504
							c-1.52-2.111-2.727-1.229-3.21-0.245c-0.483,0.984,1.479,4.685,2.666,6.08c1.186,1.394,2.674-0.594,2.674-0.594
							L132.166,164.504z"/>
						
							<linearGradient id="SVGID_00000181076944480165072110000014442711517711307947_" gradientUnits="userSpaceOnUse" x1="263.1019" y1="-88.4192" x2="263.1019" y2="-102.8131" gradientTransform="matrix(0.9762 -0.2168 0.2168 0.9762 -78.1918 317.0728)">
							<stop  offset="0" style="stop-color:#F59F7C"/>
							<stop  offset="1" style="stop-color:#F5D3AC"/>
						</linearGradient>
						<path style="fill:url(#SVGID_00000181076944480165072110000014442711517711307947_);" d="M155.097,159.41
							c0.483-2.556,1.95-2.268,2.804-1.581c0.854,0.687,0.644,4.871,0.159,6.636c-0.485,1.765-2.674,0.594-2.674,0.594
							L155.097,159.41z"/>
						
							<linearGradient id="SVGID_00000034048736091494771660000016502808571914186402_" gradientUnits="userSpaceOnUse" x1="250.1102" y1="-122.6071" x2="250.1102" y2="-103.3216" gradientTransform="matrix(0.9762 -0.2168 0.2168 0.9762 -78.1918 317.0728)">
							<stop  offset="0" style="stop-color:#F59F7C"/>
							<stop  offset="1" style="stop-color:#F5D3AC"/>
						</linearGradient>
						<path style="fill:url(#SVGID_00000034048736091494771660000016502808571914186402_);" d="M153.995,152.421
							c-1.074-4.834-3.671-7.483-6.401-8.921c-5.304-2.795-11.883-1.333-15.505,3.444c-1.864,2.459-3.095,5.958-2.022,10.792
							c0,0,2.093,9.744,4.3,13.869c1.871,3.495,4.012,5.65,6.865,6.651c4.478,1.572,9.106,0.284,11.478-2.425
							c2.625-2.998,3.045-5.066,3.26-9.025C156.225,162.134,153.995,152.421,153.995,152.421z"/>
						<path style="fill:#2F3A9E;" d="M137.804,161.62c0.098,0.441-0.18,0.878-0.621,0.976c-0.441,0.098-0.878-0.18-0.976-0.621
							c-0.098-0.441,0.18-0.878,0.621-0.976C137.269,160.901,137.706,161.179,137.804,161.62z"/>
						<path style="fill:#2F3A9E;" d="M150.104,158.888c0.098,0.441-0.18,0.878-0.621,0.976c-0.441,0.098-0.878-0.18-0.976-0.621
							c-0.098-0.441,0.18-0.878,0.621-0.976C149.569,158.169,150.006,158.447,150.104,158.888z"/>
						<path style="fill:#FF9B72;" d="M143.403,162.671c0.01,0.023,0.03,0.166,0.039,0.35c0.037,0.659,0.017,1.945,0.152,3.074
							c0.069,0.567,0.174,1.096,0.362,1.512c0.095,0.208,0.212,0.391,0.371,0.531c0.158,0.14,0.368,0.23,0.594,0.228
							c0.283-0.001,0.568-0.123,0.873-0.346c0.116-0.085,0.141-0.248,0.056-0.364c-0.085-0.116-0.248-0.141-0.364-0.056
							c-0.253,0.186-0.443,0.247-0.566,0.245c-0.112-0.002-0.189-0.037-0.286-0.133c-0.167-0.166-0.322-0.545-0.419-1.023
							c-0.15-0.717-0.196-1.643-0.218-2.438c-0.011-0.398-0.016-0.764-0.027-1.06c-0.014-0.301-0.022-0.511-0.073-0.681
							c-0.044-0.137-0.191-0.212-0.327-0.168C143.434,162.387,143.358,162.534,143.403,162.671L143.403,162.671z"/>
						<path style="fill:#FF9B72;" d="M143.087,172.466c0.609,0.143,1.167,0.21,1.72,0.21c0.622,0,1.237-0.085,1.916-0.236
							c1.046-0.233,1.552-0.663,2.343-1.138c0.123-0.074,0.163-0.234,0.089-0.357c-0.074-0.123-0.234-0.163-0.357-0.089
							c-0.839,0.505-1.251,0.866-2.189,1.076c-0.654,0.146-1.228,0.224-1.802,0.224c-0.512,0-1.025-0.062-1.602-0.197
							c-0.14-0.033-0.28,0.054-0.313,0.194C142.86,172.293,142.947,172.433,143.087,172.466L143.087,172.466z"/>
						<path style="fill:#2F3A9E;" d="M134.001,159.634c1.123-0.562,1.995-0.964,3.209-1.233c0.14-0.031,0.229-0.17,0.198-0.31
							c-0.031-0.14-0.17-0.229-0.31-0.198c-1.272,0.281-2.202,0.711-3.329,1.276c-0.128,0.064-0.18,0.221-0.116,0.349
							C133.716,159.646,133.873,159.698,134.001,159.634L134.001,159.634z"/>
						<path style="fill:#2F3A9E;" d="M147.237,156.473c0.53-0.044,1.03-0.08,1.521-0.08c0.606,0,1.197,0.055,1.821,0.217
							c0.139,0.036,0.281-0.047,0.317-0.186c0.036-0.139-0.047-0.281-0.186-0.317c-0.675-0.176-1.315-0.234-1.952-0.234
							c-0.516,0-1.03,0.038-1.564,0.082c-0.143,0.012-0.25,0.138-0.238,0.281C146.968,156.379,147.093,156.485,147.237,156.473
							L147.237,156.473z"/>
						
							<linearGradient id="SVGID_00000032626567018694699800000015350754065518023588_" gradientUnits="userSpaceOnUse" x1="250.0678" y1="-103.1755" x2="224.4514" y2="-124.8071" gradientTransform="matrix(0.9762 -0.2168 0.2168 0.9762 -78.1918 317.0728)">
							<stop  offset="0.0196" style="stop-color:#343B97"/>
							<stop  offset="1" style="stop-color:#5457D4"/>
						</linearGradient>
						<path style="fill:url(#SVGID_00000032626567018694699800000015350754065518023588_);" d="M133.173,148.314
							c0,0-0.176,7.249-1.207,9.063c-1.031,1.814,0.157,5.419,0.372,6.729c0.216,1.311,0.002,2.288,0.002,2.288
							s-2.415-6.641-3.312-10.592c-0.897-3.952-0.122-7.596,1.996-9.274C133.143,144.848,133.173,148.314,133.173,148.314z"/>
						
							<linearGradient id="SVGID_00000099644052654331823630000007042207892670526388_" gradientUnits="userSpaceOnUse" x1="249.7526" y1="-113.2685" x2="272.0968" y2="-109.2836" gradientTransform="matrix(0.9762 -0.2168 0.2168 0.9762 -78.1918 317.0728)">
							<stop  offset="0.0196" style="stop-color:#343B97"/>
							<stop  offset="1" style="stop-color:#5457D4"/>
						</linearGradient>
						<path style="fill:url(#SVGID_00000099644052654331823630000007042207892670526388_);" d="M147.193,145.199
							c0,0,3.487,7.021,5.189,8.228c1.702,1.207,2.094,4.897,2.454,6.176c0.359,1.279,0.765,1.623,0.765,1.623
							s-0.624-7.038-1.484-10.998c-0.86-3.96-3.106-6.933-5.735-7.557C145.753,142.047,147.193,145.199,147.193,145.199z"/>
						
							<linearGradient id="SVGID_00000010279023751341333790000005820596651201907851_" gradientUnits="userSpaceOnUse" x1="250.0349" y1="-104.7498" x2="250.0349" y2="-124.1049" gradientTransform="matrix(0.9762 -0.2168 0.2168 0.9762 -78.1918 317.0728)">
							<stop  offset="0.0196" style="stop-color:#343B97"/>
							<stop  offset="1" style="stop-color:#5457D4"/>
						</linearGradient>
						<path style="fill:url(#SVGID_00000010279023751341333790000005820596651201907851_);" d="M149.157,149.195
							c-8.247-0.281-13.928,2.008-15.984,3.446c-2.056,1.438-6.265-4.798-5.252-8.646c5.943-0.113,7.948-2.797,15.998-3.755
							C151.97,139.282,154.498,148.084,149.157,149.195z"/>
					</g>
					
						<linearGradient id="SVGID_00000157284640199831310160000004177693701879397772_" gradientUnits="userSpaceOnUse" x1="244.338" y1="-67.6547" x2="244.338" y2="-79.4184" gradientTransform="matrix(0.9762 -0.2168 0.2168 0.9762 -78.1918 317.0728)">
						<stop  offset="0" style="stop-color:#FFFFFF"/>
						<stop  offset="1" style="stop-color:#C9DEFF"/>
					</linearGradient>
					<path style="fill:url(#SVGID_00000157284640199831310160000004177693701879397772_);" d="M136.374,184.403
						c-0.429-1.93,0.507-3.687,0.507-3.687c2.823,3.084,7.46,6.597,12.925,7.816c-1.485,2.261-2.671,5.297-3.124,7.106
						C142.179,192.75,138.691,188.864,136.374,184.403z"/>
					
						<linearGradient id="SVGID_00000083784485682112120670000000841253725567688067_" gradientUnits="userSpaceOnUse" x1="256.2158" y1="-67.655" x2="256.2158" y2="-79.4191" gradientTransform="matrix(0.9762 -0.2168 0.2168 0.9762 -78.1918 317.0728)">
						<stop  offset="0" style="stop-color:#FFFFFF"/>
						<stop  offset="1" style="stop-color:#C9DEFF"/>
					</linearGradient>
					<path style="fill:url(#SVGID_00000083784485682112120670000000841253725567688067_);" d="M159.895,179.178
						c-0.429-1.93-2.02-3.126-2.02-3.126c-1.252,3.99-3.965,9.135-8.4,12.553c2.302,1.42,4.662,3.668,5.839,5.115
						C158.169,189.198,159.685,184.201,159.895,179.178z"/>
				</g>
			</g>
			
				<linearGradient id="SVGID_00000085239421727088366030000008175473576472885183_" gradientUnits="userSpaceOnUse" x1="135.2652" y1="424.963" x2="156.5491" y2="424.963">
				<stop  offset="0.0196" style="stop-color:#343B97"/>
				<stop  offset="1" style="stop-color:#5457D4"/>
			</linearGradient>
			<path style="fill:url(#SVGID_00000085239421727088366030000008175473576472885183_);" d="M155.329,418.903l1.22,12.12h-21.284
				v-3.234c0.49-1.198,7.1-5.892,8.337-8.886C150.724,418.903,155.329,418.903,155.329,418.903z"/>
		</g>
		<g>
			<g>
				<g>
					
						<linearGradient id="SVGID_00000135665059919080592910000010436311793980326045_" gradientUnits="userSpaceOnUse" x1="187.2372" y1="265.2483" x2="342.9655" y2="265.2483">
						<stop  offset="0" style="stop-color:#5457D4"/>
						<stop  offset="1" style="stop-color:#302C8B"/>
					</linearGradient>
					<path style="fill:url(#SVGID_00000135665059919080592910000010436311793980326045_);" d="M324.2,431.023H206.003
						c-10.364,0-18.765-8.402-18.765-18.765V118.239c0-10.364,8.402-18.765,18.765-18.765H324.2
						c10.364,0,18.765,8.401,18.765,18.765v294.019C342.965,422.621,334.564,431.023,324.2,431.023z"/>
					
						<linearGradient id="SVGID_00000000923107016451018480000006696430376880685470_" gradientUnits="userSpaceOnUse" x1="322.6238" y1="469.9286" x2="192.2339" y2="47.2659">
						<stop  offset="0.0196" style="stop-color:#343B97"/>
						<stop  offset="0.5363" style="stop-color:#5457D4"/>
						<stop  offset="1" style="stop-color:#46C8FF"/>
					</linearGradient>
					<path style="fill:url(#SVGID_00000000923107016451018480000006696430376880685470_);" d="M318.579,431.023H200.382
						c-10.364,0-18.765-8.402-18.765-18.765V118.239c0-10.364,8.402-18.765,18.765-18.765h118.197
						c10.364,0,18.765,8.401,18.765,18.765v294.019C337.345,422.621,328.943,431.023,318.579,431.023z"/>
					
						<linearGradient id="SVGID_00000050647791294197793640000003010554740871373462_" gradientUnits="userSpaceOnUse" x1="260.0641" y1="423.7372" x2="260.0641" y2="126.2645">
						<stop  offset="0" style="stop-color:#45ABE2"/>
						<stop  offset="1" style="stop-color:#433EBD"/>
					</linearGradient>
					<path style="fill:url(#SVGID_00000050647791294197793640000003010554740871373462_);" d="M332.423,125.431v278.14
						c0,4.71-3.811,8.522-8.522,8.522H196.227c-4.71,0-8.522-3.811-8.522-8.522v-278.14c0-4.71,3.811-8.532,8.522-8.532h49.031
						c3.361,0,6.648,1.338,8.811,3.897c1.434,1.713,3.586,2.794,5.995,2.794c2.409,0,4.561-1.081,5.995-2.794
						c2.163-2.559,5.449-3.897,8.821-3.897h49.021C328.612,116.899,332.423,120.721,332.423,125.431z"/>
				</g>
				
					<linearGradient id="SVGID_00000025410052536091722960000008266454509626326433_" gradientUnits="userSpaceOnUse" x1="260.0436" y1="91.3366" x2="258.973" y2="135.2292">
					<stop  offset="0" style="stop-color:#5457D4"/>
					<stop  offset="1" style="stop-color:#302C8B"/>
				</linearGradient>
				<circle style="fill:url(#SVGID_00000025410052536091722960000008266454509626326433_);" cx="259.481" cy="114.415" r="3.922"/>
				
					<linearGradient id="SVGID_00000129195642862511715760000001399085370682613422_" gradientUnits="userSpaceOnUse" x1="259.4807" y1="152.3341" x2="259.4807" y2="130.3878">
					<stop  offset="0" style="stop-color:#5457D4"/>
					<stop  offset="1" style="stop-color:#302C8B"/>
				</linearGradient>
				<circle style="fill:url(#SVGID_00000129195642862511715760000001399085370682613422_);" cx="259.481" cy="114.415" r="1.815"/>
				
					<linearGradient id="SVGID_00000091727474331782105180000004324470517070457023_" gradientUnits="userSpaceOnUse" x1="260.0641" y1="102.5994" x2="260.0641" y2="201.4916">
					<stop  offset="0" style="stop-color:#FFFFFF"/>
					<stop  offset="1" style="stop-color:#C9DEFF"/>
				</linearGradient>
				
					<rect x="187.705" y="134.67" style="fill:url(#SVGID_00000091727474331782105180000004324470517070457023_);" width="144.718" height="65.962"/>
				<g>
					
						<linearGradient id="SVGID_00000163775414126866692010000011533829997249761688_" gradientUnits="userSpaceOnUse" x1="227.2016" y1="166.2409" x2="227.2016" y2="212.2889">
						<stop  offset="0.0196" style="stop-color:#343B97"/>
						<stop  offset="0.5363" style="stop-color:#5457D4"/>
						<stop  offset="1" style="stop-color:#4DAFEB"/>
					</linearGradient>
					
						<rect x="218.291" y="166.065" style="fill:url(#SVGID_00000163775414126866692010000011533829997249761688_);" width="17.821" height="28.989"/>
					<g>
						<g>
							
								<text transform="matrix(1 0 0 1 197.4332 175.264)" style="fill:#343B97; font-family:'OpenSans-Semibold'; font-size:6.4298px;">Mon</text>
						</g>
						<g>
							
								<text transform="matrix(1 0 0 1 221.2926 175.264)" style="fill:#FFFFFF; font-family:'OpenSans-Semibold'; font-size:6.6531px;">Tue</text>
						</g>
						<g>
							
								<text transform="matrix(1 0 0 1 242.8654 175.264)" style="fill:#302B93; font-family:'OpenSans-Semibold'; font-size:6.6531px;">Wed</text>
						</g>
						<g>
							
								<text transform="matrix(1 0 0 1 266.694 175.264)" style="fill:#302B93; font-family:'OpenSans-Semibold'; font-size:6.6531px;">Thu</text>
						</g>
						<g>
							
								<text transform="matrix(1 0 0 1 291.4635 175.264)" style="fill:#302B93; font-family:'OpenSans-Semibold'; font-size:6.6531px;">Fri</text>
						</g>
						<g>
							
								<text transform="matrix(1 0 0 1 313.3258 175.264)" style="fill:#302B93; font-family:'OpenSans-Semibold'; font-size:6.6531px;">Sat</text>
						</g>
						<g>
							
								<text transform="matrix(1 0 0 1 199.5216 190.2903)" style="fill:#302B93; font-family:'OpenSans-Semibold'; font-size:8.554px;">25</text>
						</g>
						<g>
							
								<text transform="matrix(1 0 0 1 222.3204 190.2903)" style="fill:#FFFFFF; font-family:'OpenSans-Semibold'; font-size:8.554px;">26</text>
						</g>
						<g>
							
								<text transform="matrix(1 0 0 1 245.1193 190.2903)" style="fill:#302B93; font-family:'OpenSans-Semibold'; font-size:8.554px;">27</text>
						</g>
						<g>
							
								<text transform="matrix(1 0 0 1 267.9166 190.2903)" style="fill:#302B93; font-family:'OpenSans-Semibold'; font-size:8.554px;">28</text>
						</g>
						<g>
							
								<text transform="matrix(1 0 0 1 290.7145 190.2903)" style="fill:#302B93; font-family:'OpenSans-Semibold'; font-size:8.554px;">29</text>
						</g>
						<g>
							
								<text transform="matrix(1 0 0 1 313.5133 190.2903)" style="fill:#302B93; font-family:'OpenSans-Semibold'; font-size:8.554px;">30</text>
						</g>
					</g>
				</g>
				<g>
					
						<text transform="matrix(1 0 0 1 295.5983 229.8148)" style="fill:#FFFFFF; font-family:'OpenSans-Semibold'; font-size:6.5075px;">08.00 AM</text>
				</g>
				<g>
					
						<text transform="matrix(1 0 0 1 198.2189 230.1917)" style="fill:#FFFFFF; font-family:'OpenSans-Semibold'; font-size:7.826px;">Go to Work</text>
				</g>
				<g>
					
						<text transform="matrix(1 0 0 1 295.5983 260.9837)" style="fill:#FFFFFF; font-family:'OpenSans-Semibold'; font-size:6.5075px;">08.30 AM</text>
				</g>
				<g>
					
						<text transform="matrix(1 0 0 1 198.2189 261.3607)" style="fill:#FFFFFF; font-family:'OpenSans-Semibold'; font-size:7.826px;">Meeting</text>
				</g>
				<g>
					
						<text transform="matrix(1 0 0 1 295.5983 323.3206)" style="fill:#FFFFFF; font-family:'OpenSans-Semibold'; font-size:6.5075px;">11.00 AM</text>
				</g>
				<g>
					
						<text transform="matrix(1 0 0 1 198.2189 323.6976)" style="fill:#FFFFFF; font-family:'OpenSans-Semibold'; font-size:7.826px;">Inspection</text>
				</g>
				
					<linearGradient id="SVGID_00000174588452198841144690000001494555503122445240_" gradientUnits="userSpaceOnUse" x1="-47.6547" y1="-170.9417" x2="-46.6138" y2="-170.9417" gradientTransform="matrix(124.446 0 0 -124.446 6126.3447 -21030.2324)">
					<stop  offset="0" style="stop-color:#FFFFFF"/>
					<stop  offset="1" style="stop-color:#C9DEFF"/>
				</linearGradient>
				<polyline style="fill:url(#SVGID_00000174588452198841144690000001494555503122445240_);" points="195.906,242.912 
					325.443,242.912 325.443,242.652 195.906,242.652 				"/>
				
					<linearGradient id="SVGID_00000101811948387725407800000017386056857625718203_" gradientUnits="userSpaceOnUse" x1="-47.6547" y1="-170.932" x2="-46.6138" y2="-170.932" gradientTransform="matrix(124.446 0 0 -124.446 6126.3447 -21059.9512)">
					<stop  offset="0" style="stop-color:#FFFFFF"/>
					<stop  offset="1" style="stop-color:#C9DEFF"/>
				</linearGradient>
				<polyline style="fill:url(#SVGID_00000101811948387725407800000017386056857625718203_);" points="195.906,211.977 
					325.443,211.977 325.443,211.717 195.906,211.717 				"/>
				
					<linearGradient id="SVGID_00000016782597785528236160000000091143046835056512_" gradientUnits="userSpaceOnUse" x1="-47.6547" y1="-170.9516" x2="-46.6138" y2="-170.9516" gradientTransform="matrix(124.446 0 0 -124.446 6126.3447 -21000.2871)">
					<stop  offset="0" style="stop-color:#FFFFFF"/>
					<stop  offset="1" style="stop-color:#C9DEFF"/>
				</linearGradient>
				<polyline style="fill:url(#SVGID_00000016782597785528236160000000091143046835056512_);" points="195.906,274.081 
					325.443,274.081 325.443,273.821 195.906,273.821 				"/>
				
					<linearGradient id="SVGID_00000004503699055830572530000017665774337663381380_" gradientUnits="userSpaceOnUse" x1="-47.6547" y1="-170.9614" x2="-46.6138" y2="-170.9614" gradientTransform="matrix(124.446 0 0 -124.446 6126.3447 -20970.3438)">
					<stop  offset="0" style="stop-color:#FFFFFF"/>
					<stop  offset="1" style="stop-color:#C9DEFF"/>
				</linearGradient>
				<polyline style="fill:url(#SVGID_00000004503699055830572530000017665774337663381380_);" points="195.906,305.25 
					325.443,305.25 325.443,304.99 195.906,304.99 				"/>
				
					<linearGradient id="SVGID_00000142166235407110715510000005676139494167242653_" gradientUnits="userSpaceOnUse" x1="-47.6547" y1="-170.9713" x2="-46.6138" y2="-170.9713" gradientTransform="matrix(124.446 0 0 -124.446 6126.3447 -20940.4004)">
					<stop  offset="0" style="stop-color:#FFFFFF"/>
					<stop  offset="1" style="stop-color:#C9DEFF"/>
				</linearGradient>
				<polyline style="fill:url(#SVGID_00000142166235407110715510000005676139494167242653_);" points="195.906,336.418 
					325.443,336.418 325.443,336.158 195.906,336.158 				"/>
				
					<linearGradient id="SVGID_00000014624479539705159630000014147133804680609690_" gradientUnits="userSpaceOnUse" x1="-47.6547" y1="-170.9811" x2="-46.6138" y2="-170.9811" gradientTransform="matrix(124.446 0 0 -124.446 6126.3447 -20910.457)">
					<stop  offset="0" style="stop-color:#FFFFFF"/>
					<stop  offset="1" style="stop-color:#C9DEFF"/>
				</linearGradient>
				<polyline style="fill:url(#SVGID_00000014624479539705159630000014147133804680609690_);" points="195.906,367.586 
					325.443,367.586 325.443,367.326 195.906,367.326 				"/>
				<g>
					
						<text transform="matrix(1 0 0 1 295.5983 354.4886)" style="fill:#FFFFFF; font-family:'OpenSans-Semibold'; font-size:6.5075px;">12.00 AM</text>
				</g>
				<g>
					
						<text transform="matrix(1 0 0 1 198.2189 354.8655)" style="fill:#FFFFFF; font-family:'OpenSans-Semibold'; font-size:7.826px;">Lunch</text>
				</g>
				<g>
					
						<text transform="matrix(1 0 0 1 295.7477 385.6585)" style="fill:#FFFFFF; font-family:'OpenSans-Semibold'; font-size:6.5075px;">01.00 PM</text>
				</g>
				<g>
					
						<text transform="matrix(1 0 0 1 198.2189 386.0355)" style="fill:#FFFFFF; font-family:'OpenSans-Semibold'; font-size:7.826px;">Back to Office</text>
				</g>
				<g>
					<path style="fill:#335DCC;" d="M322.692,141.263h-9.156c-0.224,0-0.405,0.181-0.405,0.405c0,0.224,0.181,0.405,0.405,0.405
						h9.156c0.224,0,0.405-0.181,0.405-0.405C323.097,141.444,322.916,141.263,322.692,141.263"/>
					<path style="fill:#335DCC;" d="M322.692,144.778h-9.156c-0.224,0-0.405,0.181-0.405,0.405c0,0.223,0.181,0.405,0.405,0.405
						h9.156c0.224,0,0.405-0.181,0.405-0.405C323.097,144.959,322.916,144.778,322.692,144.778"/>
					<path style="fill:#335DCC;" d="M322.692,148.293h-9.156c-0.224,0-0.405,0.181-0.405,0.405s0.181,0.405,0.405,0.405h9.156
						c0.224,0,0.405-0.181,0.405-0.405S322.916,148.293,322.692,148.293"/>
				</g>
				<g>
					<g>
						<g>
							<path style="fill:#302B93;" d="M201.264,148.939c-0.455,0-0.863,0.078-1.226,0.234c-0.362,0.156-0.67,0.381-0.924,0.676
								c-0.253,0.295-0.448,0.651-0.583,1.068s-0.203,0.887-0.203,1.409c0,0.691,0.108,1.292,0.324,1.801
								c0.216,0.509,0.54,0.903,0.97,1.181c0.43,0.278,0.969,0.417,1.615,0.417c0.368,0,0.715-0.031,1.04-0.093
								c0.325-0.062,0.642-0.14,0.95-0.234v0.834c-0.301,0.113-0.616,0.196-0.947,0.25c-0.331,0.055-0.724,0.082-1.178,0.082
								c-0.838,0-1.538-0.174-2.1-0.521c-0.562-0.348-0.983-0.839-1.263-1.474s-0.42-1.385-0.42-2.249
								c0-0.624,0.087-1.194,0.262-1.711s0.43-0.963,0.767-1.339s0.75-0.666,1.24-0.871c0.49-0.205,1.053-0.307,1.688-0.307
								c0.417,0,0.819,0.042,1.206,0.124s0.737,0.201,1.048,0.355l-0.383,0.812c-0.263-0.12-0.551-0.225-0.865-0.313
								C201.968,148.983,201.629,148.939,201.264,148.939z"/>
							<path style="fill:#302B93;" d="M207.183,150.174c0.736,0,1.283,0.166,1.64,0.496s0.536,0.859,0.536,1.584v4.2h-0.682
								l-0.18-0.913h-0.045c-0.173,0.226-0.353,0.414-0.541,0.566s-0.405,0.267-0.651,0.344c-0.247,0.077-0.548,0.116-0.905,0.116
								c-0.376,0-0.709-0.066-1.001-0.197c-0.291-0.131-0.521-0.331-0.688-0.598c-0.167-0.267-0.251-0.605-0.251-1.015
								c0-0.616,0.244-1.09,0.733-1.42c0.488-0.331,1.232-0.511,2.232-0.542l1.065-0.045v-0.377c0-0.534-0.115-0.908-0.344-1.122
								c-0.229-0.214-0.553-0.321-0.97-0.321c-0.323,0-0.631,0.047-0.925,0.141c-0.293,0.094-0.571,0.205-0.834,0.333l-0.288-0.71
								c0.278-0.143,0.598-0.265,0.958-0.366S206.785,150.174,207.183,150.174z M208.435,153.409l-0.941,0.04
								c-0.771,0.03-1.313,0.156-1.629,0.377c-0.315,0.222-0.474,0.536-0.474,0.941c0,0.354,0.107,0.614,0.322,0.784
								c0.214,0.169,0.498,0.253,0.851,0.253c0.548,0,0.998-0.152,1.347-0.457c0.35-0.304,0.524-0.761,0.524-1.37V153.409z"/>
							<path style="fill:#302B93;" d="M212.228,156.453h-0.941v-8.771h0.941V156.453z"/>
							<path style="fill:#302B93;" d="M216.58,150.162c0.526,0,0.977,0.117,1.353,0.35s0.663,0.559,0.862,0.978
								s0.299,0.909,0.299,1.468v0.581h-4.267c0.011,0.726,0.191,1.278,0.541,1.658c0.35,0.379,0.842,0.569,1.477,0.569
								c0.391,0,0.736-0.036,1.037-0.107s0.613-0.176,0.936-0.315v0.823c-0.312,0.139-0.621,0.241-0.928,0.305
								c-0.306,0.063-0.668,0.096-1.085,0.096c-0.594,0-1.111-0.121-1.553-0.364c-0.441-0.242-0.784-0.598-1.028-1.068
								c-0.245-0.47-0.367-1.045-0.367-1.725c0-0.665,0.112-1.241,0.335-1.728c0.224-0.486,0.539-0.861,0.947-1.125
								C215.548,150.294,216.027,150.162,216.58,150.162z M216.568,150.929c-0.5,0-0.898,0.164-1.195,0.49
								c-0.297,0.327-0.474,0.784-0.53,1.37h3.27c-0.003-0.368-0.061-0.692-0.172-0.973c-0.111-0.28-0.279-0.498-0.504-0.654
								C217.211,151.007,216.922,150.929,216.568,150.929z"/>
							<path style="fill:#302B93;" d="M223.61,150.162c0.733,0,1.287,0.18,1.663,0.539c0.375,0.359,0.563,0.935,0.563,1.728v4.025
								h-0.924v-3.963c0-0.515-0.118-0.9-0.353-1.156c-0.235-0.255-0.595-0.383-1.079-0.383c-0.684,0-1.165,0.194-1.443,0.581
								c-0.278,0.387-0.417,0.949-0.417,1.686v3.236h-0.936v-6.178h0.755l0.141,0.891h0.051c0.131-0.218,0.299-0.401,0.501-0.55
								c0.203-0.148,0.431-0.261,0.682-0.338C223.067,150.201,223.331,150.162,223.61,150.162z"/>
							<path style="fill:#302B93;" d="M229.963,156.566c-0.782,0-1.401-0.267-1.857-0.8s-0.685-1.327-0.685-2.379
								c0-1.063,0.233-1.867,0.699-2.41c0.466-0.543,1.086-0.814,1.86-0.814c0.327,0,0.613,0.043,0.857,0.13
								s0.455,0.202,0.631,0.347c0.177,0.145,0.325,0.309,0.445,0.493h0.068c-0.015-0.117-0.03-0.276-0.045-0.479
								c-0.015-0.203-0.022-0.368-0.022-0.496v-2.475h0.936v8.771h-0.755l-0.141-0.879h-0.04c-0.116,0.184-0.264,0.352-0.442,0.501
								c-0.179,0.15-0.391,0.27-0.637,0.358C230.587,156.522,230.297,156.566,229.963,156.566z M230.109,155.788
								c0.662,0,1.129-0.188,1.404-0.564c0.274-0.375,0.411-0.934,0.411-1.674v-0.169c0-0.785-0.13-1.389-0.392-1.81
								s-0.736-0.631-1.423-0.631c-0.575,0-1.005,0.221-1.291,0.663c-0.286,0.441-0.428,1.043-0.428,1.807
								c0,0.759,0.142,1.345,0.425,1.759S229.53,155.788,230.109,155.788z"/>
							<path style="fill:#302B93;" d="M237.139,150.174c0.736,0,1.283,0.166,1.64,0.496s0.536,0.859,0.536,1.584v4.2h-0.682
								l-0.18-0.913h-0.045c-0.173,0.226-0.353,0.414-0.541,0.566s-0.405,0.267-0.651,0.344c-0.247,0.077-0.548,0.116-0.905,0.116
								c-0.376,0-0.709-0.066-1.001-0.197c-0.291-0.131-0.521-0.331-0.688-0.598c-0.167-0.267-0.251-0.605-0.251-1.015
								c0-0.616,0.244-1.09,0.733-1.42c0.488-0.331,1.232-0.511,2.232-0.542l1.065-0.045v-0.377c0-0.534-0.115-0.908-0.344-1.122
								c-0.229-0.214-0.553-0.321-0.97-0.321c-0.323,0-0.631,0.047-0.925,0.141c-0.293,0.094-0.571,0.205-0.834,0.333l-0.288-0.71
								c0.278-0.143,0.598-0.265,0.958-0.366S236.74,150.174,237.139,150.174z M238.39,153.409l-0.941,0.04
								c-0.771,0.03-1.313,0.156-1.629,0.377c-0.315,0.222-0.474,0.536-0.474,0.941c0,0.354,0.107,0.614,0.322,0.784
								c0.214,0.169,0.498,0.253,0.851,0.253c0.548,0,0.998-0.152,1.347-0.457c0.35-0.304,0.524-0.761,0.524-1.37V153.409z"/>
							<path style="fill:#302B93;" d="M244.05,150.162c0.124,0,0.253,0.007,0.389,0.02c0.135,0.013,0.256,0.031,0.361,0.054
								l-0.118,0.868c-0.102-0.026-0.214-0.047-0.338-0.062s-0.241-0.022-0.35-0.022c-0.248,0-0.482,0.05-0.702,0.149
								s-0.413,0.242-0.578,0.428c-0.166,0.186-0.295,0.41-0.389,0.671c-0.094,0.261-0.141,0.552-0.141,0.871v3.314h-0.941v-6.178
								h0.778l0.101,1.139h0.04c0.128-0.229,0.282-0.439,0.462-0.628c0.18-0.19,0.39-0.341,0.628-0.454
								S243.756,150.162,244.05,150.162z"/>
						</g>
					</g>
				</g>
			</g>
			<g>
				
					<linearGradient id="SVGID_00000049914670688922003060000005364476771518311843_" gradientUnits="userSpaceOnUse" x1="260.6742" y1="321.3423" x2="260.6742" y2="258.6792">
					<stop  offset="0" style="stop-color:#FFFFFF"/>
					<stop  offset="1" style="stop-color:#C9DEFF"/>
				</linearGradient>
				<path style="fill:url(#SVGID_00000049914670688922003060000005364476771518311843_);" d="M370.064,272.269v35.639
					c0,3.629-2.944,6.573-6.584,6.573H157.869c-3.64,0-6.584-2.944-6.584-6.573v-35.639c0-0.674,0.096-1.317,0.289-1.927
					c0.824-2.698,3.329-4.646,6.295-4.646H363.48C367.119,265.696,370.064,268.64,370.064,272.269z"/>
				
					<linearGradient id="SVGID_00000049941618449515489100000002136043485602968980_" gradientUnits="userSpaceOnUse" x1="143.2012" y1="284.6741" x2="157.6362" y2="278.0118">
					<stop  offset="0" style="stop-color:#FFFFFF"/>
					<stop  offset="1" style="stop-color:#C9DEFF"/>
				</linearGradient>
				<path style="fill:url(#SVGID_00000049941618449515489100000002136043485602968980_);" d="M172.011,281.775
					c-1.542,0.278-8.811-2.901-8.811-2.901s0.418,1.627,0.278,2.27c-0.139,0.653-1.531,1.274-1.531,1.274s-0.321,1.028-0.61,1.317
					c-0.128,0.129-0.867,0.557-1.563,0.931c-0.268,0.514-0.878,1.049-0.878,1.049s-1.327,0.225-1.723,0.289
					c-0.021,0-0.043,0.011-0.075,0.011c-0.278,0-1.06-0.193-1.788-0.418c-0.696-0.203-1.327-0.428-1.488-0.525
					c-0.342-0.214-1.648-1.82-1.777-2.441c-0.032-0.15-0.075-0.289-0.118-0.396c-0.128-0.343-0.278-0.557-0.321-0.61
					c-0.011-0.011-0.011-0.011-0.011-0.011s-0.118-0.043-0.31-0.129v-9.217c0-0.674,0.096-1.317,0.289-1.927
					c0.482,0.096,0.878,0.171,1.135,0.203c1.328,0.193,5.021,0.332,5.899,0.632c0.257,0.086,0.503,0.364,0.717,0.707
					c0.503,0.781,0.867,1.916,1.006,1.948c1.691,1.081,6.359,3.383,7.098,3.758c0.739,0.385,4.357,1.927,5,2.227
					C173.081,280.105,173.552,281.486,172.011,281.775z"/>
				<g>
					
						<text transform="matrix(1 0 0 1 314.3932 293.2083)" style="fill:#302B93; font-family:'OpenSans-Semibold'; font-size:9.8378px;">10.00 AM</text>
				</g>
				<g>
					
						<text transform="matrix(1 0 0 1 167.1798 293.7776)" style="fill:#302B93; font-family:'OpenSans-Semibold'; font-size:11.831px;">Meet Client</text>
				</g>
			</g>
		</g>
		<g>
			
				<linearGradient id="SVGID_00000131365547673220272220000008341566153452883089_" gradientUnits="userSpaceOnUse" x1="104.148" y1="544.7068" x2="126.8848" y2="534.213" gradientTransform="matrix(0.9779 0.2092 -0.2092 0.9779 136.4454 -278.6718)">
				<stop  offset="0" style="stop-color:#F59F7C"/>
				<stop  offset="1" style="stop-color:#F5D3AC"/>
			</linearGradient>
			<path style="fill:url(#SVGID_00000131365547673220272220000008341566153452883089_);" d="M170.117,274.323
				c-0.652-0.297-4.265-1.835-5.005-2.223c-0.741-0.38-5.401-2.679-7.095-3.757c-0.142-0.038-0.507-1.174-1.006-1.954
				c-0.214-0.339-0.463-0.614-0.722-0.705c-0.873-0.301-4.57-0.441-5.896-0.632c-0.701-0.1-2.519-0.467-4.088-0.789l-6.105-3.756
				c-1.42,2.65-2.648,5.446-3.422,8.318c2.941,1.275,5.298,2.294,6.465,2.796c1.177,1.053,2.069,2.167,2.931,2.788
				c1.582,1.133,3.11,1.717,3.11,1.717s0,0,0.005,0.008c0.039,0.051,0.194,0.263,0.321,0.605c0.04,0.116,0.083,0.247,0.115,0.397
				c0.137,0.63,1.44,2.233,1.78,2.448c0.158,0.098,0.797,0.321,1.485,0.518l0.007,0.001c0.799,0.242,1.657,0.448,1.865,0.413
				c0.393-0.066,1.723-0.297,1.723-0.297s0.601-0.537,0.874-1.044c0.697-0.38,1.431-0.803,1.567-0.938
				c0.282-0.283,0.61-1.315,0.61-1.315s1.391-0.618,1.53-1.268c0.139-0.65-0.278-2.277-0.278-2.277s7.267,3.186,8.809,2.9
				C171.24,275.994,170.762,274.618,170.117,274.323z"/>
			
				<linearGradient id="SVGID_00000085948894464049796040000011448735898614345901_" gradientUnits="userSpaceOnUse" x1="118.3092" y1="533.1107" x2="118.3092" y2="536.6808" gradientTransform="matrix(0.9779 0.2092 -0.2092 0.9779 136.4454 -278.6718)">
				<stop  offset="0" style="stop-color:#F59F7C"/>
				<stop  offset="1" style="stop-color:#F5D3AC"/>
			</linearGradient>
			<path style="fill:url(#SVGID_00000085948894464049796040000011448735898614345901_);" d="M137.427,266.726
				c-0.241,0.695-0.459,1.394-0.649,2.099c2.941,1.275,5.298,2.294,6.465,2.796C141.439,269.387,139.381,267.864,137.427,266.726z"
				/>
			
				<linearGradient id="SVGID_00000161609424086167685470000017437705720662865802_" gradientUnits="userSpaceOnUse" x1="131.6499" y1="540.2693" x2="131.6499" y2="542.7335" gradientTransform="matrix(0.9779 0.2092 -0.2092 0.9779 136.4454 -278.6718)">
				<stop  offset="0" style="stop-color:#F59F7C"/>
				<stop  offset="1" style="stop-color:#F5D3AC"/>
			</linearGradient>
			<path style="fill:url(#SVGID_00000161609424086167685470000017437705720662865802_);" d="M152.997,280.104
				c0,0-0.002,0.007-0.007-0.001c-0.688-0.197-1.327-0.42-1.485-0.518c-0.34-0.216-1.643-1.818-1.78-2.448
				c-0.032-0.15-0.076-0.281-0.115-0.397c-0.127-0.342-0.282-0.554-0.321-0.605c0.157,0.069,5.239,2.466,5.485,2.519
				C155.02,278.706,155.003,280.025,152.997,280.104z"/>
			
				<linearGradient id="SVGID_00000021091995898678618800000012959910877108347575_" gradientUnits="userSpaceOnUse" x1="132.8806" y1="529.7834" x2="135.7009" y2="528.6028" gradientTransform="matrix(0.9779 0.2092 -0.2092 0.9779 136.4454 -278.6718)">
				<stop  offset="0" style="stop-color:#F59F7C"/>
				<stop  offset="1" style="stop-color:#F5D3AC"/>
			</linearGradient>
			<path style="fill:url(#SVGID_00000021091995898678618800000012959910877108347575_);" d="M158.017,268.343
				c-2.087-1.047-4.488-2.363-4.488-2.363c1.13-0.166,2.415,0.08,3.483,0.409C157.51,267.168,157.875,268.305,158.017,268.343z"/>
		</g>
		
			<linearGradient id="SVGID_00000128467355123154803630000008315120956714968470_" gradientUnits="userSpaceOnUse" x1="205.2567" y1="270.4069" x2="92.6781" y2="212.0804">
			<stop  offset="0.0196" style="stop-color:#343B97"/>
			<stop  offset="1" style="stop-color:#5457D4"/>
		</linearGradient>
		<path style="fill:url(#SVGID_00000128467355123154803630000008315120956714968470_);" d="M145.123,262.516l-6.734,8.661
			c0,0-29.001-15.651-33.594-19.548c-4.603-3.897,0.064-16.861,4.646-31.699c5.76-18.606,5.148-22.281,13.113-27.784l2.806,19.08
			l2.409,16.647l-6.07,14.913L145.123,262.516z"/>
		
			<linearGradient id="SVGID_00000119803737921115482780000001564398159572575148_" gradientUnits="userSpaceOnUse" x1="126.6823" y1="224.4868" x2="86.7372" y2="256.4028">
			<stop  offset="0.0196" style="stop-color:#343B97"/>
			<stop  offset="1" style="stop-color:#5457D4"/>
		</linearGradient>
		<polygon style="fill:url(#SVGID_00000119803737921115482780000001564398159572575148_);" points="127.769,227.873 
			121.699,242.786 116.197,238.043 125.36,211.226 		"/>
		<g>
			
				<linearGradient id="SVGID_00000098931650014146412280000012207258083876328580_" gradientUnits="userSpaceOnUse" x1="333.5002" y1="62.7241" x2="343.5367" y2="163.4898">
				<stop  offset="0" style="stop-color:#45ABE2"/>
				<stop  offset="1" style="stop-color:#433EBD"/>
			</linearGradient>
			<circle style="fill:url(#SVGID_00000098931650014146412280000012207258083876328580_);" cx="339.039" cy="118.337" r="42.75"/>
			<circle style="fill:#FFFFFF;" cx="339.039" cy="118.337" r="37.937"/>
			<path style="fill:#002E6D;" d="M369.329,120.721c-1.316,0-2.384-1.067-2.384-2.383c0-1.316,1.068-2.383,2.384-2.383
				c1.316,0,2.383,1.068,2.383,2.383C371.712,119.653,370.645,120.721,369.329,120.721z"/>
			<path style="fill:#002E6D;" d="M312.498,135.453c-0.742,0.428-1.69,0.174-2.119-0.568c-0.428-0.743-0.175-1.691,0.568-2.12
				c0.742-0.428,1.69-0.174,2.119,0.568C313.494,134.075,313.239,135.023,312.498,135.453z"/>
			<path style="fill:#002E6D;" d="M367.132,103.909c-0.742,0.428-1.69,0.174-2.119-0.568c-0.428-0.742-0.174-1.69,0.568-2.12
				c0.742-0.428,1.69-0.174,2.119,0.568C368.128,102.532,367.875,103.481,367.132,103.909z"/>
			<path style="fill:#002E6D;" d="M324.611,146.43c-0.428,0.743-1.377,0.996-2.12,0.568c-0.742-0.428-0.996-1.377-0.568-2.119
				c0.429-0.742,1.378-0.996,2.12-0.568S325.04,145.688,324.611,146.43z"/>
			<path style="fill:#002E6D;" d="M356.155,91.796c-0.429,0.742-1.378,0.996-2.12,0.568c-0.742-0.428-0.996-1.377-0.568-2.119
				c0.428-0.743,1.377-0.996,2.12-0.568C356.329,90.105,356.583,91.054,356.155,91.796z"/>
			<path style="fill:#002E6D;" d="M356.155,144.879c0.428,0.742,0.174,1.69-0.568,2.119c-0.743,0.428-1.691,0.175-2.12-0.568
				c-0.428-0.742-0.174-1.69,0.568-2.119C354.777,143.883,355.726,144.137,356.155,144.879z"/>
			<path style="fill:#002E6D;" d="M324.611,90.245c0.428,0.742,0.174,1.69-0.568,2.119c-0.742,0.428-1.69,0.174-2.12-0.568
				c-0.428-0.742-0.174-1.69,0.568-2.119C323.235,89.249,324.183,89.502,324.611,90.245z"/>
			<path style="fill:#002E6D;" d="M367.132,132.765c0.743,0.428,0.996,1.377,0.568,2.12c-0.428,0.742-1.377,0.996-2.119,0.568
				c-0.742-0.429-0.996-1.378-0.568-2.12C365.441,132.591,366.39,132.337,367.132,132.765z"/>
			<path style="fill:#002E6D;" d="M312.498,101.222c0.742,0.429,0.996,1.378,0.568,2.12c-0.428,0.742-1.377,0.996-2.119,0.568
				c-0.743-0.428-0.996-1.377-0.568-2.12C310.807,101.048,311.756,100.793,312.498,101.222z"/>
			<path style="fill:#002E6D;" d="M338.245,92.571v24.374l-16.125-9.521c-0.378-0.223-0.865-0.098-1.088,0.28
				c-0.223,0.378-0.098,0.865,0.28,1.088l17.323,10.229c0.247,0.146,0.549,0.148,0.798,0.006c0.249-0.142,0.401-0.404,0.401-0.69
				V92.571c0-0.439-0.356-0.794-0.794-0.794C338.601,91.777,338.245,92.133,338.245,92.571L338.245,92.571z"/>
			<path style="fill:#002E6D;" d="M308.439,120.721c-1.317,0-2.384-1.067-2.384-2.383c0-1.316,1.067-2.383,2.384-2.383
				c1.316,0,2.383,1.068,2.383,2.383C310.823,119.653,309.755,120.721,308.439,120.721z"/>
			<path style="fill:#002E6D;" d="M339.039,90.01c-1.316,0-2.384-1.068-2.384-2.383c0-1.317,1.068-2.384,2.384-2.384
				c1.316,0,2.383,1.067,2.383,2.384C341.423,88.942,340.355,90.01,339.039,90.01z"/>
			<path style="fill:#002E6D;" d="M339.039,151.431c-1.316,0-2.384-1.067-2.384-2.383c0-1.316,1.068-2.383,2.384-2.383
				c1.316,0,2.383,1.067,2.383,2.383C341.423,150.365,340.355,151.431,339.039,151.431z"/>
		</g>
		<g>
			
				<linearGradient id="SVGID_00000083074428743581172750000000414160033597217160_" gradientUnits="userSpaceOnUse" x1="140.3629" y1="159.3545" x2="105.0346" y2="99.1358">
				<stop  offset="0.0196" style="stop-color:#343B97"/>
				<stop  offset="0.5363" style="stop-color:#5457D4"/>
				<stop  offset="1" style="stop-color:#46C8FF"/>
			</linearGradient>
			<path style="fill:url(#SVGID_00000083074428743581172750000000414160033597217160_);" d="M112.35,91.02
				c11.369,0,20.586,9.217,20.586,20.586c0,3.981-1.133,7.696-3.09,10.846l5.99,12.825l-12.108-6.516
				c-3.26,2.167-7.171,3.432-11.379,3.432c-11.369,0-20.586-9.217-20.586-20.586C91.764,100.237,100.981,91.02,112.35,91.02z"/>
			<path style="fill:#FFFFFF;" d="M124.561,102.685c-0.799-0.799-2.095-0.799-2.894,0l-13.348,13.348l-5.291-5.291
				c-0.799-0.799-2.095-0.799-2.893,0c-0.799,0.799-0.799,2.095,0,2.894l5.798,5.798c1.318,1.318,3.455,1.318,4.773,0l13.855-13.855
				C125.36,104.779,125.36,103.483,124.561,102.685z"/>
		</g>
	</g>
</g>
</svg>
